<?xml version="1.0" standalone="no"?>
<!DOCTYPE svg PUBLIC "-//W3C//DTD SVG 20010904//EN"
 "http://www.w3.org/TR/2001/REC-SVG-20010904/DTD/svg10.dtd">
<svg version="1.0" xmlns="http://www.w3.org/2000/svg"
 width="1024.000000pt" height="1024.000000pt" viewBox="0 0 1024.000000 1024.000000"
 preserveAspectRatio="xMidYMid meet">

<g transform="translate(0.000000,1024.000000) scale(0.100000,-0.100000)"
fill="#000000" stroke="none">
<path d="M0 5120 l0 -5120 5120 0 5120 0 0 5120 0 5120 -5120 0 -5120 0 0
-5120z m7019 3003 c-86 -88 -276 -307 -314 -363 l-30 -43 -1 -1296 c-2 -1480
-2 -1494 -14 -1466 -7 17 -9 17 -9 3 -1 -14 -5 -16 -25 -8 -28 10 -52 -10 -58
-50 -14 -88 -19 391 -16 1546 l3 1322 35 43 c43 55 217 246 292 322 l57 57 73
0 72 0 -65 -67z m723 53 c92 -12 118 -19 106 -31 -6 -6 -490 -24 -500 -18 -10
5 -10 47 -1 56 11 12 293 7 395 -7z m-3052 -6 l285 0 362 -362 c199 -200 376
-380 392 -402 23 -29 31 -49 31 -80 0 -22 -4 -47 -9 -54 -6 -10 -89 65 -307
278 -165 160 -347 341 -406 401 l-107 109 -1176 -2 -1176 -3 -127 -130 c-70
-71 -196 -203 -280 -292 l-152 -163 0 -85 c0 -84 0 -86 28 -96 37 -14 554 -34
907 -34 160 0 602 2 982 5 l693 4 157 -155 c87 -85 206 -200 264 -254 106
-100 131 -131 144 -172 5 -19 2 -23 -14 -23 -45 0 -113 44 -174 112 -34 39
-118 119 -187 178 -69 59 -147 131 -175 159 l-50 51 -1075 2 c-591 1 -1202 1
-1357 -1 l-283 -4 0 30 c0 17 7 50 15 74 12 33 14 66 9 147 l-7 104 99 96 c55
54 181 187 281 297 99 110 195 214 213 230 l31 30 922 5 c507 3 931 5 942 3
11 -1 148 -3 305 -3z m2532 -922 c-4 -1776 -6 -1921 -19 -1926 -7 -2 -13 -14
-13 -27 0 -12 -7 -25 -15 -29 -10 -4 -15 -21 -16 -53 l-2 -48 -8 45 c-4 25 -8
413 -7 863 1 855 2 836 -38 837 -44 0 -44 5 -44 -1428 0 -100 -3 -151 -10
-147 -5 3 -10 -1 -10 -9 0 -9 -6 -16 -13 -16 -16 0 -44 -32 -49 -57 -5 -23
-18 1204 -18 1708 0 355 1 387 18 401 26 23 61 31 77 18 17 -14 50 1 66 31 17
32 -17 72 -67 80 -51 9 -84 47 -84 101 0 36 7 48 73 118 41 44 73 87 74 100
l2 22 -27 -23 c-76 -66 -175 -167 -188 -192 -13 -25 -15 -180 -14 -1217 0
-654 -2 -1200 -6 -1214 -6 -24 -11 -26 -59 -26 -53 0 -54 0 -57 -32 -18 -177
-20 2214 -2 2477 l5 81 117 139 c147 177 287 323 315 328 12 2 22 5 22 6 0 0
-1 -410 -3 -911z m768 842 c24 -24 24 -29 4 -58 -15 -22 -48 -28 -72 -13 -8 5
-41 0 -80 -12 -55 -16 -107 -21 -285 -24 l-218 -5 3 33 3 34 275 5 275 5 27
28 c32 32 42 33 68 7z m-1569 -112 c2 -18 3 -880 1 -1915 -3 -1996 -1 -1914
-46 -1864 -16 18 -18 132 -19 1894 -2 1831 -2 1875 17 1896 27 30 43 26 47
-11z m-2684 -14 c-3 -3 -12 -4 -19 -1 -8 3 -5 6 6 6 11 1 17 -2 13 -5z m-75
-24 c-49 -30 -118 -103 -143 -151 -57 -114 34 -314 160 -349 115 -32 230 15
298 122 13 21 28 38 33 38 6 0 26 -16 46 -35 41 -41 72 -44 104 -10 l23 25
232 0 231 0 331 -337 c349 -357 430 -445 460 -500 16 -30 16 -35 3 -43 -8 -5
-28 -10 -43 -10 -23 0 -49 20 -130 103 -213 215 -566 547 -593 558 -36 14
-1223 13 -1359 -1 -117 -13 -574 -12 -890 0 -258 11 -316 17 -322 37 -2 6 111
128 253 270 141 142 263 268 271 281 l15 22 527 0 526 0 -33 -20z m1629 -403
l426 -423 5 -82 c4 -45 2 -82 -2 -82 -11 0 -167 150 -459 440 -241 240 -351
340 -376 340 -21 0 -65 -19 -65 -28 0 -8 690 -703 824 -829 108 -102 104 -117
-39 -129 l-70 -6 -19 48 c-15 39 -60 91 -225 259 -414 421 -530 544 -550 584
-12 22 -21 42 -21 45 0 3 15 6 33 8 17 2 -40 1 -128 -1 -88 -2 -240 2 -337 8
-155 10 -183 9 -224 -5 -25 -8 -47 -14 -48 -12 -1 2 -15 34 -30 71 -43 103
-121 182 -206 208 -14 4 225 8 530 8 l555 1 426 -423z m2944 360 c13 -10 16
-21 12 -39 -12 -46 -77 -49 -77 -3 0 53 26 70 65 42z m-107 -13 c37 -8 23 -37
-23 -47 -22 -4 -202 -9 -400 -10 l-360 -2 -3 36 -3 35 383 -3 c211 -2 393 -6
406 -9z m-4342 -73 c71 -32 112 -127 80 -189 -35 -68 -101 -90 -172 -56 -53
25 -74 59 -74 117 0 56 25 103 69 131 33 20 47 20 97 -3z m2494 -1736 c0
-1700 0 -1745 -19 -1745 -10 0 -24 6 -30 14 -9 10 -12 446 -11 1730 0 943 3
1722 6 1731 3 8 17 15 30 15 l24 0 0 -1745z m1686 1632 l26 -22 -22 -20 c-19
-17 -40 -20 -154 -24 -72 -2 -209 0 -303 4 l-173 7 0 39 0 39 300 -1 c295 0
301 -1 326 -22z m-1820 -1572 c0 -836 -1 -1537 -4 -1558 -3 -22 -12 -41 -20
-44 -42 -17 -41 -47 -42 1560 0 1425 1 1532 17 1549 9 10 24 17 32 16 14 -3
16 -154 17 -1523z m1587 1418 c91 -3 171 -9 178 -13 7 -5 9 -18 5 -34 l-6 -26
-285 0 -285 0 0 40 0 40 113 0 c63 0 189 -3 280 -7z m-1725 -1409 c1 -742 0
-1364 -3 -1381 -5 -27 -11 -33 -30 -33 -19 0 -25 6 -30 33 -3 17 -4 631 -3
1363 3 1299 3 1332 22 1353 11 12 24 20 30 18 8 -3 12 -403 14 -1353z m2267
1227 c35 -8 45 -35 18 -49 -10 -5 -225 -12 -485 -15 l-468 -5 0 37 c0 21 3 40
6 44 8 8 892 -3 929 -12z m-2410 -1273 c0 -799 -3 -1212 -10 -1215 -37 -11
-37 -28 -37 1203 1 1200 2 1268 35 1235 9 -9 12 -287 12 -1223z m2311 1092
c110 -11 128 -26 43 -34 -54 -5 -766 -27 -851 -26 -25 0 -28 4 -28 33 0 19 3
37 8 42 9 10 710 -3 828 -15z m-4798 -140 c25 -8 24 -8 -12 -9 -22 -1 -37 -3
-34 -6 3 -3 99 -2 214 4 115 5 310 7 434 3 212 -7 194 -8 -305 -15 -1077 -16
-1637 -18 -1632 -4 2 6 12 12 23 13 10 1 30 5 44 9 49 16 342 23 788 18 250
-3 466 -9 480 -13z m4601 -26 c29 -36 27 -85 -4 -118 -30 -32 -37 -32 -71 -2
-36 30 -37 86 -3 122 29 31 52 30 78 -2z m-274 -19 c0 -30 0 -30 -70 -36 -38
-4 -121 -7 -184 -8 -99 -1 -112 1 -107 15 3 9 6 27 6 40 l0 24 178 -2 177 -3
0 -30z m-3905 -75 c218 -5 256 -8 160 -11 -69 -2 -154 -3 -190 -1 -36 1 -294
-3 -575 -10 -507 -11 -1145 -4 -1145 13 0 4 8 8 18 8 43 -1 248 14 252 18 6 6
1046 -6 1480 -17z m3928 -62 c16 -16 15 -57 0 -63 -7 -2 -95 -5 -196 -7 l-182
-3 0 37 c0 20 6 39 13 41 6 3 89 6 183 6 120 1 174 -3 182 -11z m-5105 -85
c-13 -2 -33 -2 -45 0 -13 2 -3 4 22 4 25 0 35 -2 23 -4z m5457 -90 c0 -47 -7
-48 -346 -51 -175 -2 -334 -5 -351 -8 -33 -6 -33 -6 -33 34 0 41 0 41 43 44
23 2 187 4 364 3 l323 0 0 -22z m-2358 -128 c-3 -27 -7 -52 -9 -55 -3 -3 -784
-5 -1735 -5 l-1731 0 -113 -105 -113 -105 -1 -225 c-2 -292 -5 -313 -61 -363
-24 -22 -35 -36 -24 -32 107 39 286 45 1275 39 580 -3 1045 -1 1270 6 396 13
493 8 498 -26 2 -11 -6 -32 -17 -45 l-19 -24 -1364 -1 c-1198 0 -1557 4 -1633
20 -11 3 -27 5 -35 5 -15 1 -17 147 -11 604 l1 77 77 73 c43 39 111 104 151
142 l73 70 1763 0 1763 0 -5 -50z m2676 -31 c33 -4 52 -11 52 -19 0 -10 -37
-14 -152 -19 -448 -18 -708 -26 -822 -26 l-126 0 0 41 0 42 498 -7 c273 -4
521 -9 550 -12z m-4458 -124 c0 -6 -31 -43 -68 -84 -70 -75 -86 -103 -97 -168
-9 -57 -27 -62 -164 -48 -73 7 -364 12 -791 13 l-675 2 -3 58 -3 58 66 61 c37
34 74 68 84 75 14 9 186 13 737 17 395 2 742 9 769 14 69 13 145 14 145 2z
m969 -18 l814 -4 -7 -66 c-3 -37 -6 -160 -6 -273 l0 -206 -277 -6 c-153 -3
-441 -3 -639 1 -215 4 -382 3 -410 -2 -53 -10 -1351 -10 -1911 0 l-333 6 0 38
c0 20 3 64 6 96 l6 59 632 -3 c347 -2 647 -6 667 -9 23 -3 48 1 68 12 36 18
157 34 212 27 26 -3 40 -11 47 -27 19 -42 84 -106 133 -131 59 -29 144 -41
191 -25 21 7 70 46 121 96 47 46 95 89 106 94 29 16 73 13 101 -6 22 -15 68
-16 512 -14 480 3 488 2 517 -18 40 -29 62 -26 98 12 64 68 70 112 19 163 -19
19 -43 34 -54 34 -22 0 -68 -43 -78 -73 -6 -20 -8 -20 -498 -14 -321 4 -496 3
-502 -3 -6 -6 -47 -13 -92 -17 -76 -6 -82 -5 -82 13 0 57 -115 205 -195 254
l-20 12 20 -8 c11 -4 386 -10 834 -12z m3295 -25 l28 -15 -32 -17 c-29 -15
-85 -18 -442 -23 l-408 -5 0 43 0 43 413 -5 c344 -5 417 -8 441 -21z m-4131
-106 c40 -16 79 -76 84 -129 6 -58 -24 -108 -80 -135 -50 -25 -88 -15 -143 37
-36 35 -44 49 -44 80 0 109 91 182 183 147z m3645 -57 c4 -41 -1 -42 -205 -50
l-163 -7 0 41 c0 50 -2 50 210 48 l155 -1 3 -31z m201 -130 c82 -69 -13 -175
-111 -124 -35 18 -58 20 -248 20 l-210 0 0 49 c0 35 4 51 16 55 9 3 100 6 202
6 104 0 194 5 202 10 8 5 38 10 67 10 41 0 58 -5 82 -26z m591 -26 c24 -26 26
-75 4 -106 -22 -32 -76 -30 -103 4 -41 52 -12 124 49 124 17 0 38 -9 50 -22z
m-197 -55 c-24 -2 -62 -2 -85 0 -24 2 -5 4 42 4 47 0 66 -2 43 -4z m-166 -10
c-20 -2 -52 -2 -70 0 -17 2 0 4 38 4 39 0 53 -2 32 -4z m-409 -85 c7 -7 12
-27 12 -45 0 -39 20 -35 -232 -38 l-168 -2 0 38 c0 48 1 48 185 52 77 1 151 4
166 5 14 1 30 -3 37 -10z m439 -145 c15 -20 3 -52 -30 -76 -21 -16 -30 -18
-56 -9 -21 7 -144 9 -387 5 l-356 -6 4 34 3 34 165 6 c91 3 242 7 335 8 109 1
188 6 220 15 55 15 84 12 102 -11z m-2484 -39 c32 -6 37 -10 37 -34 0 -60 0
-60 -153 -60 -77 0 -167 5 -198 12 -98 20 -122 7 -274 -146 -217 -219 -415
-399 -498 -454 l-39 -26 -1261 -4 c-694 -2 -1265 -7 -1268 -10 -4 -4 -9 -63
-12 -132 l-5 -125 86 -82 c48 -45 90 -83 94 -83 4 0 75 -73 158 -162 124 -134
150 -167 150 -192 0 -23 -3 -27 -12 -18 -7 7 -16 12 -20 12 -17 0 -6 -22 43
-80 85 -103 19 -49 -133 107 -79 81 -223 229 -321 328 l-177 179 2 181 3 180
1205 -3 c663 -1 1265 0 1339 4 l133 6 294 295 c223 224 302 297 327 303 39 10
447 12 500 4z m2242 -134 c20 -7 26 -16 23 -33 -3 -21 -9 -22 -103 -28 -55 -4
-191 -7 -302 -8 l-203 -1 0 40 0 40 279 0 c163 0 291 -4 306 -10z m-2522 -30
c10 -9 -7 -37 -73 -125 -105 -139 -557 -572 -575 -551 -19 21 -16 54 5 61 11
4 25 15 31 27 8 14 -6 9 -51 -22 -33 -23 -75 -47 -93 -55 -44 -17 -754 -30
-1711 -30 -407 0 -732 -1 -723 -3 9 -2 14 -9 10 -17 -4 -12 -7 -12 -20 1 -9 8
-18 13 -21 10 -2 -3 81 -91 185 -196 l190 -190 447 0 446 0 0 -25 0 -26 -426
1 c-234 1 -429 -1 -432 -4 -3 -3 0 -6 5 -6 6 0 26 -19 45 -42 l33 -43 -35 24
c-19 14 -109 99 -200 191 -91 91 -193 190 -228 220 -58 50 -62 56 -62 96 l0
43 1223 -1 1222 -2 40 21 c22 12 56 37 75 55 138 129 546 524 548 530 2 5 24
24 50 43 44 34 70 38 95 15z m303 -117 c-7 -54 -23 -75 -86 -111 -25 -15 -72
-47 -106 -73 -35 -26 -81 -51 -109 -58 -73 -18 -102 -37 -141 -91 -19 -27 -44
-52 -54 -55 -10 -3 -17 -12 -14 -19 5 -12 -24 -45 -91 -103 -14 -12 -25 -20
-25 -17 0 3 -6 2 -12 -3 -7 -4 -19 -8 -25 -9 -20 -3 -72 -57 -66 -67 3 -6 1
-7 -4 -4 -6 4 -31 -15 -55 -41 -25 -26 -69 -69 -99 -97 -62 -58 -34 -22 76 95
38 41 -9 -3 -106 -98 l-176 -172 -189 6 c-104 4 -191 9 -194 11 -2 2 80 3 183
1 103 -2 187 1 187 5 0 5 127 138 283 295 269 273 444 458 550 584 l49 57 66
4 c37 2 89 4 116 5 l49 2 -7 -47z m-1871 28 c470 -8 455 -9 -645 -20 -465 -5
-890 -6 -945 -2 -375 26 558 39 1590 22z m4230 -17 c31 -33 33 -82 4 -118 -29
-37 -70 -35 -103 5 -29 34 -32 50 -15 82 33 63 74 74 114 31z m-347 -51 l-3
-38 -187 -3 -188 -2 0 33 c0 19 3 37 7 40 3 4 89 7 190 7 l184 0 -3 -37z
m-4442 -30 c306 -8 298 -18 -26 -34 -315 -16 -1225 -1 -1204 20 16 16 813 25
1230 14z m2420 -108 c7 -18 -5 -90 -13 -81 -6 6 -60 -32 -105 -73 -16 -14 -28
-21 -28 -17 0 4 -7 1 -15 -8 -8 -8 -15 -19 -15 -24 0 -15 -39 -46 -73 -57 -18
-6 -31 -17 -29 -24 1 -7 -2 -10 -8 -6 -6 4 -39 -20 -73 -53 -34 -33 -71 -69
-83 -79 -11 -10 -108 -100 -215 -200 -185 -173 -280 -256 -286 -249 -3 3 77
83 530 529 182 178 189 187 182 217 -6 29 -5 30 17 25 20 -5 37 5 91 54 68 62
111 78 123 46z m2123 6 c9 -6 11 -18 7 -34 -8 -33 -17 -35 -278 -41 l-208 -6
0 40 0 40 208 3 c114 1 218 3 232 5 14 1 31 -2 39 -7z m-4060 -21 c-24 -14
-1589 -26 -1589 -12 0 16 63 18 870 20 457 1 729 -2 719 -8z m4217 -86 c20
-19 24 -31 20 -52 -10 -38 -40 -77 -61 -77 -21 0 -51 39 -61 77 -4 21 0 33 20
52 14 15 32 26 41 26 9 0 27 -11 41 -26z m-829 -121 c-2 -16 -4 -5 -4 22 0 28
2 40 4 28 2 -13 2 -35 0 -50z m691 52 c3 -3 -1 -12 -9 -20 -18 -17 -171 -34
-352 -37 l-137 -3 0 32 c0 28 4 32 33 37 41 6 458 -2 465 -9z m-2114 -178 c-8
-61 -26 -81 -450 -504 l-333 -331 -513 -1 c-543 -1 -618 2 -618 25 0 8 5 14
10 14 6 0 10 5 10 10 0 6 -9 10 -20 10 -11 0 -20 5 -20 11 0 7 10 9 24 5 14
-3 28 -2 31 4 4 6 -142 11 -422 13 -235 1 4 3 531 4 l960 2 49 58 c27 32 172
182 322 333 150 151 301 309 335 350 84 102 93 108 102 73 4 -15 5 -49 2 -76z
m2446 13 c6 -10 3 -18 -11 -28 -17 -12 -24 -11 -57 8 -23 14 -38 18 -40 11 -2
-6 -16 -11 -30 -11 -21 0 -24 -2 -12 -10 10 -7 -24 -10 -105 -11 -336 -2 -554
-7 -564 -13 -7 -5 -11 5 -11 28 0 30 3 35 28 38 15 2 199 3 410 3 324 0 384
-2 392 -15z m-5710 -80 l95 -7 -100 0 c-55 -1 -127 3 -160 7 l-60 7 65 0 c36
1 108 -3 160 -7z m1050 -20 c14 -4 -78 -5 -205 -2 -126 2 -232 6 -234 8 -8 8
415 2 439 -6z m341 -32 c103 -35 167 -119 156 -206 -13 -108 -29 -154 -66
-195 -41 -46 -121 -87 -169 -87 -64 0 -157 70 -197 149 -50 99 11 266 120 333
34 21 105 24 156 6z m-358 -57 c-7 -29 -99 -33 -527 -26 -366 7 -477 15 -445
36 8 5 228 9 496 9 466 0 481 -1 476 -19z m-46 -85 c-26 -20 -258 -28 -580
-18 -190 6 -281 12 -289 20 -9 9 92 12 438 12 379 -1 446 -3 431 -14z m3124
-66 c12 0 19 7 19 20 0 16 6 20 30 18 28 -2 30 -5 30 -40 0 -32 9 -48 60 -105
156 -178 161 -185 49 -77 -86 83 -121 111 -144 113 -16 2 -31 7 -33 12 -7 19
-22 8 -22 -17 0 -14 -4 -23 -10 -19 -6 3 -9 44 -8 93 1 48 3 68 5 45 3 -35 8
-43 24 -43z m1713 39 c30 -35 33 -76 11 -119 -12 -24 -22 -30 -49 -30 -57 0
-104 78 -77 128 32 60 76 68 115 21z m-1281 -165 c10 -13 15 -24 10 -24 -20 0
-153 163 -153 187 0 12 73 -71 143 -163z m-137 43 c93 -98 187 -201 248 -274
15 -18 32 -30 39 -27 12 4 58 -47 70 -78 14 -39 -30 1 -155 141 -72 80 -169
181 -215 224 -80 76 -114 117 -95 117 5 0 54 -47 108 -103z m-3439 70 c-2 -8
-51 -13 -163 -15 -169 -3 -252 7 -159 18 96 12 327 10 322 -3z m-893 -366 c16
-17 16 -19 -1 -25 -9 -4 -14 -4 -11 0 4 4 3 15 -3 25 -12 24 -7 24 15 0z
m5600 -7 c16 -42 2 -84 -29 -84 -11 0 -35 34 -35 50 0 39 52 66 64 34z m-5276
-31 c-53 -2 -143 -2 -200 0 -57 1 -13 3 97 3 110 0 156 -2 103 -3z m4777 -615
c4 -13 92 -193 195 -400 172 -347 185 -377 166 -382 -29 -8 -240 -7 -261 0 -9
4 -29 32 -45 63 -36 69 -56 95 -68 87 -4 -3 -23 -35 -42 -71 -18 -36 -38 -69
-44 -74 -11 -8 -306 -22 -306 -14 0 7 174 370 279 582 56 113 101 210 101 218
0 21 18 15 25 -9z m-3891 -39 c110 -36 207 -95 295 -179 l54 -52 -34 -26 c-19
-14 -65 -56 -103 -92 l-68 -66 -48 46 c-117 114 -298 149 -455 90 -76 -29
-169 -119 -211 -205 -27 -56 -29 -68 -29 -175 0 -104 3 -120 27 -173 35 -74
135 -179 202 -212 145 -70 297 -46 446 71 53 41 62 45 77 33 43 -33 193 -172
193 -178 0 -10 -110 -98 -180 -144 -30 -20 -93 -51 -140 -69 -81 -31 -91 -32
-225 -32 -125 0 -149 3 -220 27 -115 38 -197 91 -279 178 -86 92 -138 177
-172 284 -22 66 -26 101 -27 195 -1 63 5 142 12 175 39 177 175 359 337 451
179 101 351 117 548 53z m2679 20 c113 -29 223 -88 307 -166 134 -124 211
-260 238 -418 38 -223 -36 -436 -211 -608 -64 -62 -98 -87 -172 -122 -136 -65
-197 -78 -335 -73 -136 6 -229 34 -340 100 -143 86 -242 202 -308 360 -51 123
-60 314 -21 437 65 202 266 406 469 474 30 10 73 20 95 24 22 3 42 7 44 9 13
12 164 1 234 -17z m-1895 -271 l2 -278 305 0 305 0 2 275 3 275 133 3 132 4 0
-66 c1 -36 3 -348 6 -693 l6 -628 -119 0 c-65 0 -128 3 -140 6 l-23 6 0 269 0
269 -306 0 -306 0 3 -272 4 -273 -132 -3 -132 -3 -6 34 c-9 47 -2 1330 8 1344
5 8 45 11 130 10 l122 -2 3 -277z m4082 -413 l0 -695 -134 3 -133 2 -6 248
c-3 136 -3 446 0 687 l6 439 126 4 c69 1 129 4 134 5 4 1 7 -311 7 -693z
m-5890 611 c0 -40 3 -101 6 -135 l7 -61 -387 0 -386 0 0 -142 0 -143 337 0
338 0 6 -130 c4 -71 5 -133 2 -137 -2 -5 -156 -8 -341 -8 l-337 0 -2 -138 -2
-137 342 3 c188 2 361 0 385 -3 l42 -6 0 -135 0 -134 -442 0 c-244 0 -480 3
-525 7 l-83 6 0 487 c0 268 3 575 7 683 l6 197 514 0 513 0 0 -74z m5183 -823
l157 -6 69 -136 c38 -75 86 -176 106 -226 20 -49 39 -96 42 -103 4 -10 -27
-12 -148 -10 l-153 3 -38 80 c-21 44 -48 100 -60 125 l-23 45 -192 3 -192 2
14 40 c8 22 31 70 50 105 25 45 32 65 23 65 -38 0 -147 -157 -229 -330 -28
-58 -54 -112 -58 -120 -7 -12 -34 -15 -152 -15 -122 0 -144 2 -142 15 3 30
183 439 196 447 6 4 101 10 211 13 308 10 349 10 519 3z"/>
<path d="M2920 7923 c-25 -9 -40 -35 -40 -68 0 -39 16 -55 53 -55 47 0 67 16
67 56 0 64 -27 86 -80 67z"/>
<path d="M3275 7670 c-11 -5 -192 -9 -402 -9 l-383 -1 0 -24 c0 -14 3 -27 8
-30 4 -2 192 -6 417 -7 385 -3 410 -2 413 15 6 27 -7 66 -21 65 -6 0 -21 -4
-32 -9z"/>
<path d="M2278 7473 c-22 -3 -28 -10 -28 -29 l0 -24 542 2 542 3 6 25 7 25
-521 1 c-287 0 -533 -1 -548 -3z"/>
<path d="M5239 5133 l-34 -38 38 34 c34 33 42 41 34 41 -2 0 -19 -17 -38 -37z"/>
<path d="M5009 4893 l-34 -38 38 34 c34 33 42 41 34 41 -2 0 -19 -17 -38 -37z"/>
<path d="M4960 4189 c0 -5 5 -7 10 -4 6 3 10 8 10 11 0 2 -4 4 -10 4 -5 0 -10
-5 -10 -11z"/>
<path d="M7658 4883 c7 -3 16 -2 19 1 4 3 -2 6 -13 5 -11 0 -14 -3 -6 -6z"/>
<path d="M3721 4728 c-96 -51 -134 -146 -97 -243 20 -52 81 -110 125 -120 58
-13 129 13 184 66 l49 48 -4 64 c-5 78 -37 133 -100 173 -59 37 -103 41 -157
12z m130 -81 c42 -28 79 -82 79 -116 0 -36 -58 -97 -107 -111 -45 -14 -75 -3
-126 45 -56 53 -57 96 -3 154 53 56 102 65 157 28z"/>
<path d="M6200 3260 c-123 -26 -248 -127 -306 -247 -36 -73 -36 -77 -32 -176
3 -84 9 -112 30 -159 65 -140 241 -258 387 -258 155 0 311 105 385 260 38 81
47 196 22 283 -22 75 -88 170 -151 218 -90 68 -229 100 -335 79z"/>
</g>
</svg>
